<?xml version="1.0" standalone="no"?>
<!DOCTYPE svg PUBLIC "-//W3C//DTD SVG 20010904//EN"
 "http://www.w3.org/TR/2001/REC-SVG-20010904/DTD/svg10.dtd">
<svg version="1.0" xmlns="http://www.w3.org/2000/svg"
 width="1086.000000pt" height="1280.000000pt" viewBox="0 0 1086.000000 1280.000000"
 preserveAspectRatio="xMidYMid meet">

<g transform="translate(0.000000,1280.000000) scale(0.100000,-0.100000)"
fill="#000000" stroke="none">
<path d="M6159 10866 c-2 -2 -76 -6 -164 -9 -88 -3 -184 -11 -214 -18 -35 -7
-76 -9 -115 -3 -119 15 -196 10 -256 -19 -40 -20 -71 -27 -115 -27 -33 0 -77
-4 -98 -9 -23 -6 -51 -5 -70 0 -28 8 -56 10 -132 8 -10 0 -24 -4 -31 -10 -7
-6 -21 -6 -39 1 -33 13 -62 -5 -34 -20 9 -5 27 -19 40 -30 l24 -21 -44 7 c-28
4 -41 3 -37 -4 9 -15 -80 -42 -139 -42 -89 0 -152 -46 -174 -127 -6 -23 -16
-45 -21 -48 -17 -11 -44 -77 -34 -83 13 -9 17 -82 5 -82 -5 0 -16 -3 -25 -6
-11 -4 -16 -1 -16 10 0 25 -19 19 -30 -9 -6 -14 -29 -34 -60 -50 -48 -24 -65
-45 -37 -45 6 0 4 -5 -6 -11 -10 -6 -25 -8 -33 -5 -11 4 -14 -4 -14 -34 0 -29
-5 -42 -20 -50 -18 -10 -56 -46 -117 -113 -13 -14 -23 -30 -23 -36 0 -20 19
-11 42 19 28 39 39 38 31 -2 -10 -54 -21 -70 -46 -62 -29 9 -44 12 -34 7 12
-7 8 -30 -7 -42 -8 -7 -18 -31 -21 -54 -4 -23 -15 -62 -26 -87 -28 -70 -28
-86 1 -82 21 3 22 2 11 -11 -7 -9 -27 -19 -44 -23 -18 -3 -38 -11 -46 -17 -11
-10 -9 -13 10 -17 17 -4 25 -14 27 -33 2 -15 -1 -27 -7 -27 -5 0 -13 -17 -17
-37 -4 -21 -11 -44 -17 -52 -6 -7 -12 -18 -14 -25 -1 -6 -9 -36 -17 -66 -18
-63 -21 -151 -6 -166 7 -7 8 -19 1 -37 -6 -14 -8 -41 -4 -59 3 -19 0 -51 -5
-72 -9 -31 -8 -36 3 -26 17 14 32 -7 16 -23 -17 -17 -13 -59 10 -106 18 -38
21 -66 24 -215 2 -94 8 -184 14 -199 6 -16 11 -63 11 -105 1 -42 5 -108 11
-147 5 -38 11 -97 13 -131 2 -33 8 -69 14 -80 21 -41 23 -115 6 -201 -13 -66
-14 -91 -5 -104 9 -16 7 -21 -14 -35 -27 -17 -33 -41 -39 -145 -2 -36 -9 -81
-16 -100 -10 -29 -10 -48 5 -114 18 -83 23 -110 24 -135 1 -12 3 -12 9 -2 10
14 23 -25 42 -123 25 -129 33 -162 52 -220 11 -33 27 -75 35 -92 14 -30 14
-36 -1 -68 -12 -24 -15 -47 -10 -72 7 -40 50 -113 67 -113 5 0 16 -8 23 -17
11 -15 16 -16 34 -5 26 16 33 2 28 -59 -2 -33 -7 -44 -20 -44 -9 0 -20 -4 -24
-8 -4 -4 -13 -2 -20 4 -7 6 -21 9 -31 7 -15 -3 -13 -7 12 -23 20 -14 44 -20
76 -19 l46 2 18 -77 c10 -42 26 -101 35 -131 10 -30 21 -75 25 -100 4 -25 13
-56 20 -70 7 -14 15 -40 19 -59 3 -19 20 -63 36 -98 17 -35 30 -67 30 -72 0
-5 7 -22 15 -37 8 -16 15 -37 15 -46 0 -25 51 -177 61 -184 5 -3 9 -23 9 -45
0 -26 4 -39 14 -39 8 0 16 -15 19 -35 3 -20 17 -49 31 -66 14 -17 26 -37 26
-45 0 -8 3 -14 8 -14 4 0 20 -16 35 -35 22 -28 26 -39 17 -50 -15 -17 2 -28
43 -27 64 2 126 -45 82 -62 -25 -9 -17 -24 43 -82 56 -55 95 -79 120 -75 7 1
15 -5 18 -14 8 -20 34 -19 34 2 0 9 -7 24 -16 34 -9 10 -14 25 -10 34 7 20 26
10 26 -13 0 -30 34 -112 46 -112 6 0 15 -7 18 -16 3 -9 13 -14 20 -11 8 3 20
0 26 -8 9 -11 7 -18 -9 -34 -25 -25 -37 -26 -49 -5 -5 9 -21 18 -35 19 -23 3
-25 1 -15 -20 5 -12 31 -32 57 -44 25 -12 54 -26 63 -32 10 -5 23 -9 29 -9 5
0 25 -11 43 -25 18 -14 40 -25 49 -25 9 0 33 -11 53 -25 20 -14 47 -25 59 -25
12 0 28 -7 35 -15 7 -8 21 -15 31 -15 10 0 21 -5 24 -10 20 -32 196 -75 273
-66 31 3 63 2 71 -3 9 -6 29 -4 53 5 22 7 42 13 46 12 4 -1 14 2 22 5 8 3 47
15 87 27 40 11 75 25 78 30 3 6 16 10 28 10 12 0 58 18 102 40 44 22 85 40 91
40 6 0 19 9 29 20 10 11 24 20 31 20 7 0 28 13 46 30 18 16 28 30 24 30 -5 0
-17 -7 -27 -16 -9 -8 -36 -17 -60 -19 -24 -3 -45 -9 -47 -13 -1 -5 -16 -6 -32
-4 -37 5 -39 29 -5 42 14 5 25 14 25 19 0 6 24 22 53 36 28 14 57 32 62 40 6
7 33 25 60 40 28 15 66 44 85 64 20 20 54 53 78 74 23 21 42 42 42 47 0 6 6
10 13 10 7 0 21 15 30 33 48 90 61 107 70 95 6 -9 7 -8 4 4 -6 16 29 99 62
148 10 14 30 63 45 110 15 47 45 119 65 160 71 142 106 205 118 213 6 4 15 22
19 40 3 17 16 52 27 77 11 25 25 56 31 70 6 14 14 27 17 30 14 13 39 95 39
130 0 22 2 40 5 40 2 0 26 -5 53 -10 34 -8 57 -8 77 0 33 12 27 21 -23 35
l-37 11 4 59 c2 33 9 72 17 87 8 15 14 37 14 50 0 13 7 56 15 96 14 65 14 75
0 88 -17 17 -20 34 -6 34 5 0 12 -8 14 -17 3 -12 5 -10 6 7 1 38 -14 57 -33
41 -8 -7 -19 -10 -23 -8 -10 6 -10 6 -15 -118 -4 -92 -26 -157 -51 -152 -9 1
-11 -16 -9 -65 4 -70 -1 -81 -24 -50 -12 16 -13 15 -14 -5 0 -13 4 -23 9 -23
16 0 20 -38 4 -44 -9 -4 -12 -1 -7 7 5 8 4 9 -4 2 -8 -8 -9 -21 -2 -45 5 -19
7 -43 4 -54 -6 -18 -7 -18 -16 -2 -9 17 -11 16 -22 -5 -18 -36 -41 -35 -59 3
-14 29 -17 30 -23 13 -5 -11 -3 -20 4 -23 17 -5 15 -37 -3 -52 -13 -11 -15 -8
-15 14 0 15 -7 29 -15 32 -8 4 -15 14 -15 24 0 11 -5 22 -10 25 -14 9 -70 -17
-70 -32 0 -7 -8 -13 -19 -13 -16 0 -18 6 -14 45 6 44 -24 165 -39 165 -5 0 -8
11 -8 25 0 14 5 25 10 25 6 0 10 7 10 15 0 18 -16 20 -23 3 -3 -8 -9 -1 -16
15 -10 25 -31 34 -65 28 -5 -1 -13 4 -17 11 -12 19 -19 5 -20 -43 -1 -24 -10
-56 -20 -71 -11 -14 -19 -33 -19 -42 0 -9 -4 -16 -9 -16 -18 0 -21 18 -9 47 6
15 10 32 9 36 -1 5 3 6 8 3 15 -9 21 33 21 146 0 63 -4 109 -10 113 -6 4 -8
15 -5 26 4 11 -4 33 -19 56 -14 21 -26 45 -26 54 0 9 -7 23 -16 30 -9 8 -28
31 -41 53 l-25 39 51 48 51 48 -37 10 c-21 6 -54 11 -73 12 -19 1 28 7 105 14
231 21 299 49 376 151 22 28 39 54 39 58 0 3 11 24 25 46 14 22 34 64 45 93
12 28 24 61 29 72 5 11 14 58 20 105 18 131 22 154 31 164 5 5 6 14 3 21 -2 8
0 23 6 34 9 17 8 22 -9 31 -36 19 -44 8 -41 -61 2 -62 -1 -80 -32 -220 -29
-126 -93 -291 -132 -340 -34 -41 -98 -85 -150 -103 -71 -24 -235 -40 -340 -33
-80 6 -222 41 -242 60 -3 4 -12 7 -19 7 -9 0 -10 -6 -1 -25 7 -14 19 -25 27
-25 10 0 11 -3 4 -8 -6 -4 -14 -27 -17 -51 -3 -24 -11 -47 -18 -52 -35 -21
-219 31 -219 63 0 18 -38 46 -48 36 -10 -10 -179 -30 -247 -29 -35 0 -118 9
-160 16 -30 6 -48 -6 -93 -60 -7 -8 -21 -15 -31 -15 -10 0 -43 -9 -74 -19 -44
-16 -59 -17 -72 -7 -24 17 -32 71 -22 146 12 83 56 147 112 166 48 16 70 47
72 102 3 55 28 112 50 112 20 0 45 47 80 149 29 87 30 96 15 107 -15 11 -18 9
-22 -14 -3 -15 -12 -27 -20 -27 -24 0 -13 44 15 67 36 28 47 40 74 80 33 47
108 82 161 75 52 -7 100 -57 100 -104 0 -31 -2 -33 -35 -33 -19 0 -35 -3 -35
-6 0 -3 18 -26 39 -52 28 -34 48 -74 70 -142 34 -104 46 -128 57 -117 4 4 2
13 -4 19 -7 7 -12 21 -12 32 0 18 2 18 14 6 17 -19 31 -74 16 -65 -13 8 -13
12 10 -86 14 -56 28 -90 42 -102 21 -18 22 -18 30 2 10 29 28 26 28 -4 0 -14
6 -25 13 -25 7 0 30 -16 51 -35 44 -40 141 -95 168 -95 21 0 24 24 6 40 -7 5
-31 26 -52 45 -22 19 -46 35 -53 35 -7 0 -13 4 -13 9 0 6 -11 16 -23 23 -105
58 -149 101 -133 127 3 5 -1 11 -9 15 -20 7 -20 56 0 56 8 0 15 -7 15 -15 0
-18 10 -19 47 -3 39 17 63 38 63 57 0 9 9 22 20 29 17 10 26 9 53 -4 17 -9 39
-22 47 -29 8 -7 38 -20 65 -30 28 -10 54 -22 59 -27 6 -4 22 -8 36 -8 14 0 30
-4 36 -9 5 -5 48 -11 96 -14 66 -5 89 -3 95 7 7 11 42 22 139 41 12 3 24 14
27 25 3 13 10 18 21 14 12 -5 16 0 16 19 0 29 21 50 43 41 9 -3 34 2 56 12 36
16 38 19 28 41 -8 19 -8 26 2 32 9 6 10 11 2 15 -7 5 -8 13 -1 25 7 15 4 20
-15 29 -14 7 -25 18 -25 25 0 7 -11 24 -25 37 -14 13 -25 32 -25 42 0 10 -9
26 -20 35 -11 10 -20 28 -20 40 0 15 -6 23 -17 23 -22 0 -6 16 22 22 l20 5
-20 7 c-11 5 -26 10 -32 12 -25 7 -12 33 22 44 19 6 33 15 30 20 -6 10 -87 30
-139 35 -21 2 -43 8 -48 13 -6 6 -17 8 -24 5 -8 -3 -21 0 -29 7 -10 8 -60 13
-155 13 -77 0 -139 2 -137 3 2 2 50 8 107 13 204 19 415 -23 603 -120 13 -7
17 -5 17 10 0 11 -4 23 -10 26 -5 3 -10 14 -10 23 -1 20 -120 152 -137 152 -7
0 -10 6 -7 14 8 21 -59 40 -110 31 -22 -4 -52 -7 -66 -6 -14 0 -115 2 -225 4
-187 4 -201 3 -222 -15 -21 -20 -21 -20 -33 1 -10 20 -13 20 -33 6 -12 -8 -36
-15 -54 -15 -17 0 -38 -7 -47 -15 -8 -8 -19 -15 -25 -15 -6 0 -16 -9 -23 -20
-7 -11 -18 -20 -25 -20 -7 0 -13 -4 -13 -9 0 -21 -172 -57 -217 -45 -11 3 -38
-2 -58 -12 -21 -10 -40 -13 -43 -8 -16 22 -47 31 -69 21 -19 -8 -30 -5 -60 16
-25 18 -41 23 -47 17 -6 -6 -16 -10 -23 -10 -15 0 -53 36 -53 50 0 6 -7 10
-15 10 -9 0 -18 7 -21 15 -4 8 -12 15 -20 15 -8 0 -14 5 -14 10 0 6 -6 10 -14
10 -7 0 -19 7 -26 15 -7 8 -29 14 -54 14 -55 0 -74 4 -121 26 -33 16 -67 20
-183 22 -79 1 -149 6 -155 11 -7 5 -43 12 -80 15 -38 2 -74 10 -80 16 -6 6
-33 11 -60 11 -42 0 -53 -4 -82 -34 -18 -19 -45 -42 -59 -51 -27 -18 -35 -45
-13 -45 6 0 3 -7 -8 -16 -19 -15 -19 -16 -2 -26 17 -9 16 -12 -17 -34 -63 -43
-84 -68 -88 -104 -3 -34 -4 -35 -61 -44 l-58 -9 3 -36 c2 -27 -1 -36 -14 -39
-15 -3 -18 4 -18 34 0 51 -10 37 -16 -22 -5 -51 -18 -74 -40 -74 -17 0 -14 81
3 102 6 7 13 51 16 98 3 47 9 94 13 105 26 72 49 108 91 141 65 52 75 63 96
109 43 90 51 105 58 105 17 0 61 82 55 104 -3 12 3 31 14 45 13 18 17 35 12
60 -3 23 -2 32 6 28 6 -5 8 1 5 14 -5 17 -2 19 20 14 26 -7 43 7 32 25 -5 8
-11 7 -21 -1 -11 -9 -18 -9 -27 0 -9 9 -7 19 7 46 11 19 23 35 28 35 5 0 13
11 18 25 5 14 15 24 22 23 7 -2 17 7 23 20 7 16 18 22 40 22 48 0 144 27 210
59 33 16 67 32 76 34 17 6 49 60 49 84 0 7 7 13 17 13 16 0 118 70 139 97 7 8
34 18 60 23 73 13 153 37 170 51 11 9 18 9 26 1 8 -8 15 -7 26 4 15 15 53 13
97 -6 11 -4 28 -11 38 -14 32 -10 18 -25 -20 -19 -32 5 -35 4 -30 -11 4 -10 7
-19 7 -21 0 -2 17 -7 38 -11 20 -4 43 -12 51 -18 8 -6 25 -9 38 -8 14 2 32 -3
41 -11 9 -8 34 -18 55 -21 36 -7 38 -6 32 14 -6 19 -4 21 14 15 15 -5 21 -2
21 10 0 8 12 20 26 25 18 7 24 15 20 26 -4 12 -2 15 9 10 8 -3 14 0 12 7 -4
21 75 19 166 -2 47 -12 101 -21 121 -21 20 0 36 -4 36 -9 0 -5 -10 -7 -22 -5
-13 2 -5 -2 16 -11 36 -14 42 -14 75 3 29 14 46 16 86 9 28 -5 57 -13 66 -17
9 -5 34 -12 55 -15 54 -9 104 -33 104 -50 0 -8 8 -19 19 -24 24 -13 34 -40 21
-56 -7 -8 -3 -15 15 -23 14 -6 25 -18 25 -27 0 -8 7 -15 15 -15 16 0 24 -29
22 -74 -1 -16 4 -31 11 -34 9 -3 11 3 6 22 -5 22 -3 26 15 26 14 0 26 -10 34
-28 25 -57 72 -121 90 -122 10 0 25 -7 33 -15 9 -8 20 -15 25 -15 5 0 9 7 9
15 0 18 19 20 21 3 1 -7 3 -24 4 -38 2 -31 26 -111 36 -125 4 -6 4 -17 -1 -25
-5 -9 -5 -19 2 -27 8 -10 5 -13 -11 -13 -21 0 -29 -24 -11 -35 5 -3 21 -32 36
-63 14 -31 35 -75 46 -97 73 -140 88 -171 88 -181 0 -6 6 -17 14 -23 24 -20
106 -167 121 -217 8 -27 15 -81 15 -120 0 -62 3 -73 25 -94 51 -47 20 -112
-34 -72 -15 10 -34 21 -43 25 -14 5 -18 18 -18 52 0 33 -4 45 -15 45 -10 0
-15 -11 -15 -35 0 -19 -4 -35 -10 -35 -18 0 -11 -18 10 -25 17 -5 20 -15 20
-71 0 -57 2 -64 20 -64 12 0 20 7 21 18 1 26 19 -39 19 -73 4 -228 -2 -337
-25 -445 -14 -63 -26 -150 -28 -193 -2 -42 -9 -83 -15 -89 -16 -16 -15 -58 1
-59 6 -1 22 -3 34 -4 19 -2 23 5 32 47 6 27 18 62 26 78 9 17 13 40 10 53 -7
28 16 51 43 43 10 -3 27 0 38 8 17 13 19 27 19 110 -1 84 -4 99 -24 127 -18
24 -22 39 -18 66 6 37 36 73 60 73 14 0 53 -67 49 -83 -1 -5 2 -6 8 -2 5 3 10
15 10 26 0 37 24 14 37 -37 9 -32 12 -74 8 -119 -7 -75 3 -79 25 -10 7 22 25
66 40 97 23 49 26 64 19 100 -4 24 -8 73 -9 111 0 52 -5 75 -22 103 -23 35
-28 36 -85 19 -18 -6 -21 -4 -16 14 4 17 10 20 32 14 24 -6 25 -5 12 11 -15
18 -9 28 24 39 6 2 9 53 7 130 -3 117 -1 132 23 192 14 36 29 84 34 107 14 67
114 322 137 349 8 8 14 20 14 26 0 6 7 16 15 23 8 7 15 27 15 46 0 35 14 52
26 33 7 -12 34 52 34 81 0 8 13 42 29 76 25 53 27 63 15 79 -8 10 -14 26 -14
34 0 18 -45 108 -66 132 -8 8 -14 22 -14 29 0 7 -14 26 -31 41 -40 35 -30 44
56 47 65 3 25 25 -50 27 -76 3 -101 18 -70 41 11 8 19 22 17 30 -2 9 6 14 22
14 18 0 24 4 20 14 -7 19 -45 8 -52 -16 -4 -15 -10 -18 -31 -13 -41 10 -45 22
-15 42 38 24 63 54 64 76 0 10 8 17 20 17 13 0 20 7 20 20 0 17 5 19 24 14 22
-5 25 -2 32 33 4 21 12 41 17 45 6 3 12 12 14 20 1 7 5 25 9 39 5 21 2 27 -15
32 -17 4 -20 10 -15 37 7 31 -4 82 -33 151 -9 21 -12 47 -8 60 4 14 3 19 -2
12 -11 -15 -28 -4 -37 25 -4 12 -13 22 -21 22 -14 0 -25 30 -25 73 0 16 -4 26
-10 22 -5 -3 -10 -1 -10 4 0 6 8 11 18 11 20 0 42 -34 40 -60 -3 -40 2 -51 24
-48 30 4 34 33 9 55 -12 9 -21 23 -21 30 0 6 -13 21 -28 32 l-28 20 -19 -26
-19 -25 -18 22 c-10 12 -18 28 -18 35 0 7 -6 18 -14 24 -7 6 -11 22 -9 35 4
18 -1 27 -17 36 -13 7 -19 17 -16 27 4 8 1 13 -6 11 -17 -6 -86 66 -94 98 -7
27 -16 41 -64 96 -29 33 -98 53 -87 25 12 -31 -11 -26 -37 8 -15 19 -36 35
-47 35 -10 0 -19 7 -19 15 0 8 -14 27 -31 42 -18 16 -37 33 -43 39 -7 6 -26
15 -44 18 -17 4 -42 16 -56 27 -14 11 -30 18 -35 14 -6 -3 -13 1 -18 9 -11 20
-172 146 -186 146 -7 0 -18 9 -25 20 -7 11 -17 20 -24 20 -6 0 -34 17 -62 38
-28 21 -59 41 -69 45 -10 4 -16 10 -13 15 2 4 2 12 -2 18 -7 9 -81 58 -92 60
-3 0 -12 3 -20 7 -51 19 -114 36 -121 32 -4 -3 -10 -1 -13 4 -3 5 -27 12 -54
15 -57 8 -357 17 -363 12z m238 -22 c-3 -3 -12 -4 -19 -1 -8 3 -5 6 6 6 11 1
17 -2 13 -5z m-1757 -234 c0 -5 -4 -10 -10 -10 -5 0 -10 5 -10 10 0 6 5 10 10
10 6 0 10 -4 10 -10z m-100 -172 c0 -16 -3 -19 -11 -11 -6 6 -8 16 -5 22 11
17 16 13 16 -11z m2720 -51 c0 -16 -35 -1 -38 16 -3 16 -1 17 17 5 12 -7 21
-17 21 -21z m40 -47 c0 -5 -2 -10 -4 -10 -3 0 -8 5 -11 10 -3 6 -1 10 4 10 6
0 11 -4 11 -10z m-2821 -68 c-2 -15 0 -33 4 -39 6 -9 3 -11 -6 -7 -16 6 -20
74 -4 74 5 0 7 -12 6 -28z m2891 -27 c0 -5 -5 -3 -10 5 -5 8 -10 20 -10 25 0
6 5 3 10 -5 5 -8 10 -19 10 -25z m-3252 -513 c2 -7 -3 -12 -12 -12 -9 0 -16 7
-16 16 0 17 22 14 28 -4z m-28 -122 c0 -19 -11 -26 -23 -14 -8 8 3 34 14 34 5
0 9 -9 9 -20z m3634 -74 c-9 -25 -22 -50 -30 -57 -18 -15 -18 2 1 27 8 10 15
28 15 40 0 22 8 34 21 34 4 0 1 -20 -7 -44z m273 -12 c-3 -3 -12 -4 -19 -1 -8
3 -5 6 6 6 11 1 17 -2 13 -5z m-3917 -52 c0 -15 -2 -15 -10 -2 -13 20 -13 33
0 25 6 -3 10 -14 10 -23z m1715 -262 c3 -6 -4 -10 -17 -10 -18 0 -20 2 -8 10
19 12 18 12 25 0z m-488 -1086 c-3 -3 -12 -4 -19 -1 -8 3 -5 6 6 6 11 1 17 -2
13 -5z m173 -44 c13 -9 13 -10 0 -9 -8 0 -24 4 -35 9 l-20 9 20 0 c11 0 27 -4
35 -9z m44 -19 c3 -4 19 -11 35 -14 36 -7 95 -56 69 -57 -17 0 -128 65 -128
75 0 8 19 5 24 -4z m-849 -77 c19 -8 45 -14 57 -14 13 -1 34 -9 46 -20 l24
-20 -22 -30 c-12 -17 -30 -30 -42 -30 -17 0 -19 -4 -14 -25 6 -22 3 -26 -24
-32 -17 -3 -38 -16 -48 -28 -19 -24 -72 -42 -72 -25 0 6 -9 21 -20 33 -17 17
-19 30 -14 67 7 55 25 110 36 110 4 0 8 9 8 19 0 11 10 27 23 36 21 15 22 14
25 -6 2 -12 17 -26 37 -35z m305 6 c0 -13 -38 -37 -72 -45 -34 -9 -35 1 -5 30
22 23 77 33 77 15z m1981 -87 c32 -4 36 -8 36 -34 0 -16 -3 -29 -6 -29 -3 0
-46 7 -95 15 -49 8 -93 12 -98 9 -14 -9 -78 8 -78 21 0 7 18 15 41 18 23 3 48
12 57 20 13 14 20 14 61 0 25 -8 62 -17 82 -20z m-923 -11 c13 -4 23 -11 23
-17 -1 -11 -311 -14 -311 -3 0 19 46 27 150 27 63 -1 125 -4 138 -7z m-968
-12 c-8 -5 -24 -10 -35 -10 -17 0 -17 2 -5 10 8 5 24 10 35 10 17 0 17 -2 5
-10z m1085 -70 c0 -22 -29 -18 -33 3 -3 14 1 18 15 15 10 -2 18 -10 18 -18z
m-1050 0 c3 -5 2 -10 -4 -10 -5 0 -13 5 -16 10 -3 6 -2 10 4 10 5 0 13 -4 16
-10z m1659 -6 c22 -8 20 -23 -1 -18 -10 3 -52 8 -93 13 l-75 8 77 2 c42 0 83
-2 92 -5z m-2659 -34 c3 -5 1 -10 -4 -10 -6 0 -11 5 -11 10 0 6 2 10 4 10 3 0
8 -4 11 -10z m905 -62 c0 -33 2 -32 -38 -12 -38 18 -41 37 -10 59 21 14 24 14
35 -2 7 -9 13 -29 13 -45z m-428 22 c16 0 18 -5 13 -34 -6 -29 -2 -38 29 -70
20 -19 41 -47 46 -62 6 -14 19 -28 30 -31 11 -3 20 -13 20 -23 0 -14 12 -19
63 -25 92 -10 190 -32 152 -35 l-30 -2 30 -7 c53 -11 218 -5 275 11 30 8 82
27 115 41 57 24 88 31 128 28 13 -1 16 -7 11 -25 -4 -18 -1 -25 17 -29 15 -4
20 -11 15 -22 -3 -9 0 -18 9 -21 8 -4 15 -15 15 -25 0 -10 6 -19 14 -19 8 0
16 -6 18 -12 6 -16 -32 -88 -46 -88 -6 0 -22 -12 -35 -25 -13 -14 -28 -25 -35
-25 -6 0 -27 -15 -46 -33 -19 -18 -44 -37 -55 -42 -17 -7 -18 -9 -3 -12 9 -2
26 1 37 6 11 6 27 11 37 11 16 0 16 -1 0 -19 -24 -27 -131 -51 -227 -51 -108
0 -262 24 -379 60 -131 40 -163 75 -215 234 -51 157 -73 398 -33 358 7 -7 20
-12 30 -12z m2038 0 c0 -5 -7 -10 -15 -10 -8 0 -15 5 -15 10 0 6 7 10 15 10 8
0 15 -4 15 -10z m-2167 -9 c21 -5 40 -11 42 -13 1 -1 10 -55 20 -118 24 -164
77 -308 139 -373 76 -81 202 -121 516 -161 19 -2 -20 -2 -87 0 -70 3 -123 1
-123 -4 0 -5 36 -20 80 -33 44 -12 80 -26 80 -31 0 -4 -4 -8 -10 -8 -5 0 -10
-5 -10 -11 0 -7 11 -8 32 -4 30 7 31 6 15 -9 -14 -14 -15 -22 -6 -38 9 -17 8
-24 -5 -33 -9 -7 -16 -15 -16 -19 0 -15 -45 -56 -62 -56 -10 0 -18 -6 -18 -14
0 -7 -11 -21 -25 -30 -14 -9 -27 -27 -31 -41 -3 -14 -9 -25 -13 -25 -5 0 -14
-18 -21 -41 -12 -35 -12 -42 1 -50 9 -6 10 -12 4 -16 -24 -18 -13 -160 17
-216 5 -11 7 -21 4 -24 -3 -3 1 -18 9 -33 17 -32 68 -62 92 -53 9 4 21 -1 29
-12 9 -12 14 -14 14 -6 0 7 8 3 18 -9 19 -23 42 -21 42 5 0 13 29 29 38 20 3
-3 0 -5 -6 -5 -7 0 -12 -4 -12 -10 0 -5 6 -7 14 -4 8 3 27 -4 43 -15 23 -16
35 -19 71 -12 23 5 45 5 48 0 3 -5 26 -8 52 -8 26 0 79 -4 119 -10 72 -11 108
-7 97 11 -4 6 66 6 188 2 279 -10 568 -10 571 -1 1 5 33 11 70 14 37 3 67 10
67 14 0 5 5 9 10 9 6 0 9 -3 9 -7 -4 -23 5 -33 37 -43 29 -10 38 -10 44 0 6
10 14 8 33 -6 24 -17 25 -24 20 -74 -3 -38 0 -66 11 -90 8 -19 15 -27 16 -17
0 19 2 20 24 11 11 -4 16 -19 16 -42 0 -49 -22 -142 -34 -142 -5 0 -1 -9 9
-20 17 -19 17 -21 0 -40 -18 -20 -17 -20 25 -20 43 0 43 0 25 20 -18 19 -18
22 -2 37 16 16 17 16 17 0 0 -10 7 -29 16 -42 15 -23 15 -25 0 -31 -10 -4 -16
-18 -16 -36 0 -16 4 -27 9 -24 4 3 4 -14 -2 -37 -9 -41 -38 -67 -74 -67 -7 0
-13 -4 -13 -10 0 -5 7 -10 15 -10 8 0 15 -9 15 -20 0 -16 -7 -20 -38 -20 -21
0 -48 -7 -61 -16 -15 -11 -34 -14 -56 -11 -22 4 -35 1 -38 -8 -3 -7 -32 -26
-64 -41 -32 -16 -63 -36 -70 -45 -7 -10 -30 -16 -65 -18 -29 -1 -67 -9 -85
-18 -23 -10 -67 -15 -145 -16 -112 -2 -152 5 -218 36 -46 22 -88 22 -190 2
-47 -9 -103 -17 -125 -17 -52 -1 -172 20 -199 34 -12 7 -36 13 -55 15 -19 1
-37 6 -40 12 -4 5 -13 9 -21 9 -38 -2 -51 4 -60 28 -6 14 -15 22 -20 19 -6 -3
-13 0 -15 8 -3 7 -28 31 -56 52 -29 22 -56 53 -65 74 -12 28 -17 32 -24 21 -8
-13 -10 -13 -14 0 -6 20 -19 157 -18 195 1 40 -17 85 -34 85 -10 0 -14 14 -14
46 0 34 -6 54 -24 74 -13 16 -26 47 -30 70 -4 28 -15 49 -31 62 -14 11 -25 30
-25 44 0 22 -4 24 -45 24 -25 0 -45 -5 -45 -10 0 -7 -6 -7 -19 0 -14 7 -21 6
-24 -3 -3 -9 -9 -9 -26 1 -38 22 -51 15 -51 -27 0 -22 5 -41 11 -43 9 -3 9
-10 0 -26 -15 -29 -29 -28 -37 3 -7 30 -20 32 -27 5 -3 -12 -14 -20 -26 -20
-21 0 -43 37 -55 93 -4 15 -13 27 -21 27 -17 0 -21 65 -5 75 6 3 10 11 10 16
0 6 -3 8 -8 5 -4 -2 -23 9 -42 26 -22 19 -31 31 -22 35 17 7 15 23 -3 23 -8 0
-15 7 -15 15 0 8 -4 15 -10 15 -5 0 -10 7 -10 16 0 14 2 14 16 -1 13 -13 19
-13 32 -3 14 12 13 13 -1 16 -20 4 -30 53 -26 121 4 55 -3 61 -38 36 -13 -9
-24 -11 -28 -5 -3 5 3 15 15 22 11 7 20 23 20 35 0 43 17 72 39 66 23 -6 29
12 7 24 -17 10 -24 42 -42 188 -31 250 -41 426 -32 578 5 82 13 158 19 168 11
21 34 23 92 10z m2077 -44 c0 -12 9 -40 19 -63 l18 -40 -30 4 c-17 3 -45 17
-61 33 -30 27 -30 28 -12 48 11 12 15 21 10 21 -5 1 2 7 16 14 30 17 40 12 40
-17z m-2382 -11 c20 -19 33 -38 29 -42 -12 -13 -97 38 -97 58 0 28 27 21 68
-16z m928 -27 c10 -18 -11 -31 -40 -23 -32 8 -34 21 -3 27 12 2 25 5 29 6 4 0
10 -4 14 -10z m184 -4 c0 -11 -12 -15 -44 -15 -76 0 -69 28 7 29 27 1 37 -3
37 -14z m74 -6 c-3 -5 -10 -7 -15 -3 -5 3 -7 10 -3 15 3 5 10 7 15 3 5 -3 7
-10 3 -15z m1530 -2 c8 -12 5 -22 -14 -42 -13 -14 -29 -25 -37 -25 -7 0 -13
-7 -13 -15 0 -8 -5 -15 -11 -15 -6 0 -8 6 -5 13 3 6 9 20 12 30 4 9 10 17 14
17 4 0 10 14 14 31 6 32 22 35 40 6z m-736 -26 c4 -23 -15 -44 -30 -35 -4 3
-8 19 -8 35 0 24 4 30 18 27 9 -2 19 -14 20 -27z m51 -7 c-14 -18 -24 -11 -15
11 3 9 11 13 16 10 8 -5 7 -11 -1 -21z m201 -24 c0 -5 -4 -10 -9 -10 -6 0 -13
5 -16 10 -3 6 1 10 9 10 9 0 16 -4 16 -10z m-775 -10 c3 -5 1 -10 -4 -10 -6 0
-11 5 -11 10 0 6 2 10 4 10 3 0 8 -4 11 -10z m1124 -16 c41 -9 29 -24 -19 -24
-44 0 -70 8 -70 21 0 10 44 12 89 3z m921 -35 c-7 -13 -19 -19 -32 -17 -30 4
-34 26 -6 31 48 9 49 8 38 -14z m-1310 -49 c0 -5 -2 -10 -4 -10 -3 0 -8 5 -11
10 -3 6 -1 10 4 10 6 0 11 -4 11 -10z m-2115 -73 c11 14 13 12 19 -13 6 -23 3
-31 -19 -47 -60 -44 -89 -181 -62 -292 19 -75 39 -128 52 -137 6 -4 16 -12 24
-17 7 -5 15 -20 16 -35 3 -21 -1 -26 -19 -26 -48 0 -78 57 -106 198 -18 95 -8
246 20 287 3 6 12 29 20 53 12 38 15 41 28 28 14 -13 17 -13 27 1z m1145 -433
c0 -8 -4 -12 -10 -9 -16 10 -12 -18 7 -45 15 -22 15 -23 0 -17 -27 10 -28 -9
-2 -21 28 -13 33 -32 10 -32 -51 0 24 -66 85 -75 25 -4 56 -13 68 -22 20 -12
23 -20 17 -50 -6 -33 -35 -77 -35 -54 0 14 -47 14 -52 1 -4 -14 -66 -31 -73
-19 -4 5 -28 9 -56 9 -27 0 -49 5 -49 10 0 6 -14 10 -30 10 -33 0 -49 22 -32
43 13 15 11 40 -5 58 -6 8 -13 42 -15 77 l-3 62 33 0 c26 0 35 5 40 22 5 21 6
21 13 2 7 -16 8 -15 8 7 1 21 9 30 39 42 20 9 38 16 40 16 1 1 2 -6 2 -15z
m-1084 -200 c-8 -22 -26 -7 -26 22 0 23 1 24 16 9 9 -8 13 -22 10 -31z m2239
-15 c4 -10 21 -35 40 -54 18 -20 36 -48 40 -63 3 -15 15 -37 26 -48 l20 -22
-21 -15 c-16 -11 -30 -13 -51 -7 -35 10 -54 5 -83 -24 -13 -13 -21 -16 -24 -8
-5 16 -43 14 -66 -3 -19 -14 -19 -15 7 -15 20 0 27 -5 27 -20 0 -13 7 -20 20
-20 11 0 20 -6 20 -14 0 -10 -9 -12 -38 -6 -21 4 -44 10 -51 14 -13 8 -164 37
-196 38 -11 0 -81 -1 -155 -2 -92 -2 -163 3 -225 14 -113 21 -202 25 -285 14
-36 -5 -87 -11 -113 -14 -26 -3 -59 -9 -73 -14 -30 -12 -64 -13 -64 -2 0 9 49
32 71 32 9 0 32 7 52 15 19 8 37 11 40 8 4 -3 12 -1 19 4 7 6 38 13 68 17 59
8 63 8 100 7 66 -3 182 10 207 22 56 29 186 68 226 69 23 1 48 6 54 11 23 17
40 -1 47 -47 8 -48 35 -66 37 -23 0 12 3 16 6 10 2 -7 11 -13 18 -13 7 0 15
-6 18 -12 2 -7 8 -10 12 -6 4 4 3 13 -3 20 -5 7 -11 27 -13 43 -3 45 81 130
145 146 25 6 48 15 51 19 8 13 84 -30 90 -51z m-1325 -74 c0 -16 -6 -25 -15
-25 -18 0 -20 21 -3 38 17 17 18 16 18 -13z m-803 -277 c-3 -8 -6 -5 -6 6 -1
11 2 17 5 13 3 -3 4 -12 1 -19z m-30 -10 c-3 -8 -6 -5 -6 6 -1 11 2 17 5 13 3
-3 4 -12 1 -19z m2523 -30 c0 -29 -4 -48 -8 -41 -7 12 -4 93 4 93 2 0 4 -24 4
-52z m-1395 -11 c21 -16 14 -64 -11 -74 -16 -6 -64 33 -64 52 0 32 43 45 75
22z m143 -7 c17 -11 32 -26 32 -35 0 -22 -45 -48 -70 -40 -29 9 -53 49 -45 75
8 26 40 26 83 0z m218 -5 c42 -23 46 -24 61 -9 13 12 30 15 75 12 67 -5 105
-31 94 -66 -12 -37 -144 -36 -175 2 -10 12 -18 11 -53 -6 -55 -27 -134 -20
-160 14 -10 13 -18 28 -18 35 -1 48 103 59 176 18z m-1155 -188 c-10 -9 -11
-8 -5 6 3 10 9 15 12 12 3 -3 0 -11 -7 -18z m-90 -340 c-1 -12 -15 -9 -19 4
-3 6 1 10 8 8 6 -3 11 -8 11 -12z m214 -667 c3 -5 -1 -10 -9 -10 -9 0 -16 5
-16 10 0 6 4 10 9 10 6 0 13 -4 16 -10z m215 -180 c0 -5 -7 -10 -15 -10 -8 0
-15 5 -15 10 0 6 7 10 15 10 8 0 15 -4 15 -10z m266 -239 c5 -5 20 -11 33 -13
14 -1 26 -9 29 -16 3 -9 -2 -10 -22 -2 -15 5 -40 11 -56 12 -22 2 -27 5 -18
15 12 15 21 16 34 4z"/>
<path d="M4705 6806 c-11 -9 -28 -16 -37 -16 -10 0 -18 -7 -18 -16 0 -8 -7
-23 -16 -32 -10 -9 -12 -18 -6 -20 7 -2 7 -14 0 -39 -7 -27 -7 -38 3 -44 8 -4
14 -22 15 -40 1 -18 -1 -26 -6 -19 -5 9 -9 9 -14 1 -14 -21 21 -42 58 -36 33
7 34 9 31 45 -2 25 2 43 11 51 8 6 14 16 14 22 0 5 12 35 27 65 20 41 24 58
16 71 -14 22 -53 25 -78 7z"/>
<path d="M4440 6550 c0 -5 5 -10 10 -10 6 0 10 5 10 10 0 6 -4 10 -10 10 -5 0
-10 -4 -10 -10z"/>
<path d="M5000 6264 c0 -15 23 -44 34 -44 15 0 4 37 -14 48 -17 10 -20 10 -20
-4z"/>
<path d="M5440 6074 c0 -14 -7 -15 -40 -10 -36 6 -40 4 -40 -14 0 -11 4 -20 9
-20 4 0 21 -19 36 -41 15 -23 30 -38 34 -33 3 5 16 -1 28 -13 16 -17 18 -23 8
-23 -25 0 -17 -28 13 -47 15 -10 37 -28 49 -42 15 -17 39 -27 80 -34 79 -13
245 -12 318 3 33 7 74 14 90 17 17 2 39 8 50 12 11 5 33 14 48 20 15 6 36 11
46 11 22 0 101 56 101 71 0 6 14 24 30 39 17 15 30 33 30 39 0 15 -93 14 -108
-1 -8 -8 -15 -8 -27 2 -13 10 -18 10 -33 -2 -42 -35 -75 -40 -242 -39 -159 2
-182 3 -280 16 -52 7 -193 72 -185 85 3 5 1 11 -5 15 -5 3 -10 -1 -10 -11z"/>
<path d="M6355 6040 c-3 -5 -1 -10 4 -10 6 0 11 5 11 10 0 6 -2 10 -4 10 -3 0
-8 -4 -11 -10z"/>
<path d="M6280 6553 c8 -3 21 -12 28 -21 10 -14 12 -13 12 6 0 18 -6 22 -27
21 -16 0 -21 -3 -13 -6z"/>
<path d="M4480 10390 c0 -5 5 -10 10 -10 6 0 10 5 10 10 0 6 -4 10 -10 10 -5
0 -10 -4 -10 -10z"/>
<path d="M8010 9726 c0 -7 7 -19 15 -26 16 -13 20 -3 9 24 -8 20 -24 21 -24 2z"/>
<path d="M8021 9228 c0 -7 4 -22 9 -33 7 -17 9 -15 9 13 1 17 -3 32 -9 32 -5
0 -10 -6 -9 -12z"/>
<path d="M8025 9080 c-3 -5 -1 -10 4 -10 6 0 11 5 11 10 0 6 -2 10 -4 10 -3 0
-8 -4 -11 -10z"/>
<path d="M5466 8953 c-11 -11 -6 -23 8 -23 8 0 17 4 20 9 7 10 -19 23 -28 14z"/>
<path d="M7100 7931 c0 -16 28 -20 34 -5 4 9 -1 14 -14 14 -11 0 -20 -4 -20
-9z"/>
<path d="M7185 7913 c37 -20 66 -49 85 -86 11 -23 15 -25 23 -12 20 37 -36 97
-103 108 l-35 6 30 -16z"/>
<path d="M7088 7833 c7 -3 16 -2 19 1 4 3 -2 6 -13 5 -11 0 -14 -3 -6 -6z"/>
<path d="M7456 7696 c-7 -30 -1 -46 13 -30 4 5 5 20 1 34 l-6 25 -8 -29z"/>
<path d="M7511 7654 c0 -11 3 -14 6 -6 3 7 2 16 -1 19 -3 4 -6 -2 -5 -13z"/>
<path d="M7160 7344 c-14 -7 -25 -18 -24 -24 1 -5 2 -16 3 -24 0 -8 8 -16 16
-20 16 -6 45 39 45 69 0 18 -6 18 -40 -1z"/>
<path d="M7696 6901 c-4 -7 -5 -15 -2 -18 9 -9 19 4 14 18 -4 11 -6 11 -12 0z"/>
<path d="M7666 6844 c-10 -25 -7 -34 9 -28 17 7 20 30 6 38 -5 3 -12 -1 -15
-10z"/>
<path d="M7597 6691 c-15 -16 -43 -35 -61 -41 -30 -9 -55 -45 -41 -58 16 -16
118 69 128 107 3 12 4 21 4 21 -1 0 -15 -13 -30 -29z"/>
<path d="M6880 6581 c0 -12 6 -21 15 -21 8 0 15 4 15 9 0 5 -7 14 -15 21 -13
10 -15 9 -15 -9z"/>
<path d="M4392 5248 c-22 -35 -51 -84 -64 -110 -25 -48 -121 -159 -243 -282
-76 -77 -69 -74 -355 -176 -63 -22 -129 -47 -145 -55 -17 -8 -69 -28 -115 -45
-47 -17 -94 -34 -105 -39 -52 -23 -444 -146 -540 -170 -22 -5 -86 -23 -143
-40 -56 -17 -112 -31 -123 -31 -15 0 -19 -5 -15 -15 3 -8 1 -15 -5 -15 -6 0
-8 -7 -5 -16 5 -12 2 -15 -10 -10 -8 3 -22 6 -30 6 -8 0 -14 5 -14 11 0 6 8 8
19 4 19 -6 39 9 24 18 -10 6 -126 -18 -182 -38 -24 -8 -51 -15 -59 -15 -9 0
-26 -10 -39 -22 -20 -18 -27 -20 -42 -11 -15 10 -36 8 -97 -9 -43 -12 -73 -23
-66 -26 18 -6 14 -20 -9 -32 -16 -9 -28 -9 -50 0 -25 11 -40 9 -99 -9 -39 -13
-68 -27 -64 -32 3 -6 3 -21 0 -35 -5 -17 -13 -24 -31 -24 -16 0 -25 6 -25 15
0 8 9 15 20 15 11 0 20 7 20 15 0 19 -10 19 -37 0 -12 -9 -20 -22 -17 -29 3
-8 0 -17 -7 -22 -7 -4 -15 -2 -17 4 -5 16 -42 -3 -42 -21 0 -22 -55 -67 -81
-67 -17 0 -20 -3 -10 -9 15 -10 7 -31 -12 -31 -7 0 -17 -10 -22 -22 -6 -15
-17 -22 -29 -20 -14 3 -17 -1 -12 -13 3 -9 6 -20 6 -25 0 -4 9 -10 20 -13 11
-3 20 -10 20 -16 0 -16 -14 -13 -43 9 -14 11 -35 20 -46 20 -12 0 -21 5 -21
10 0 6 -9 10 -20 10 -15 0 -22 -9 -27 -31 -5 -28 -9 -30 -34 -25 -22 4 -29 1
-34 -14 -4 -11 -18 -23 -33 -26 -35 -9 -54 -24 -48 -40 6 -17 -16 -35 -32 -25
-6 4 -10 17 -7 29 2 12 0 24 -6 27 -5 4 -9 0 -9 -8 0 -8 -7 -14 -16 -13 -9 0
-19 -5 -21 -11 -3 -7 4 -13 14 -14 10 0 13 -3 6 -5 -7 -3 -17 -21 -23 -40 -12
-34 -34 -45 -43 -21 -3 6 -3 -4 0 -24 3 -24 0 -45 -11 -61 -15 -23 -15 -26 -1
-31 8 -4 15 -2 15 3 0 6 4 10 9 10 6 0 6 -13 -1 -32 -10 -29 -12 -30 -25 -12
-14 18 -15 18 -28 1 -7 -11 -12 -27 -10 -38 2 -10 -1 -21 -6 -25 -6 -4 -6 -11
2 -20 10 -12 7 -19 -12 -37 -13 -12 -30 -22 -38 -22 -9 0 -19 -19 -27 -50 -32
-128 -66 -263 -75 -291 -5 -17 -9 -42 -9 -57 0 -14 -4 -29 -10 -32 -14 -8 -13
-51 2 -74 9 -15 7 -25 -11 -54 -14 -24 -23 -56 -25 -94 -2 -32 -7 -66 -11 -76
-4 -9 -2 -23 4 -30 7 -10 7 -19 -3 -33 -13 -18 -33 -107 -35 -149 0 -11 -12
-105 -26 -210 -35 -262 -64 -499 -70 -565 -8 -100 -25 -273 -39 -385 -7 -60
-9 -111 -4 -113 13 -6 9 -22 -4 -19 -9 1 -14 -14 -15 -48 -5 -104 -32 -495
-42 -610 -5 -66 -13 -165 -16 -220 -3 -55 -8 -128 -11 -163 l-6 -62 4821 0
4821 0 -5 23 c-22 104 -27 191 -30 612 -5 460 -11 560 -44 705 -11 52 -37 220
-46 300 -14 122 -48 280 -62 280 -7 0 -13 10 -13 23 0 18 2 19 11 7 12 -18 1
55 -12 82 -5 9 -9 24 -9 33 0 21 -24 45 -45 45 -9 0 -15 6 -12 13 2 6 12 11
21 11 17 -2 21 14 8 31 -4 6 -13 10 -20 10 -10 0 -15 21 -18 75 -3 41 -9 91
-14 110 -6 19 -10 67 -10 106 0 39 -3 74 -7 77 -3 4 -7 28 -8 55 -1 26 -15 97
-30 159 -23 92 -30 110 -44 105 -14 -5 -14 -4 -2 11 11 13 11 23 3 40 -6 12
-16 36 -23 53 -7 18 -18 30 -24 27 -12 -4 -33 82 -34 137 -2 108 -22 242 -44
297 -34 84 -84 170 -103 177 -8 3 -13 10 -9 15 3 5 0 13 -6 17 -8 4 -9 3 -5
-4 11 -19 -9 -14 -26 6 -8 9 -18 25 -22 36 -6 17 -8 17 -31 2 -16 -10 -26 -12
-30 -5 -4 6 -13 8 -21 5 -8 -3 -14 -1 -14 4 0 5 10 11 23 13 12 2 2 2 -23 0
-55 -6 -60 -9 -60 -34 0 -12 -7 -19 -19 -19 -22 0 -36 16 -22 24 17 11 -47 67
-81 72 -43 5 -71 -4 -64 -22 7 -18 -4 -18 -32 2 -25 17 -21 34 9 34 12 0 17 4
13 11 -3 6 -15 9 -25 6 -23 -6 -94 28 -117 57 -9 11 -25 22 -35 23 -15 1 -17
-4 -13 -23 4 -14 2 -24 -4 -24 -5 0 -10 8 -10 17 0 21 -38 77 -63 92 -11 8
-16 8 -12 2 3 -6 -1 -11 -10 -11 -9 0 -15 5 -13 12 6 16 -90 60 -113 53 -14
-5 -19 -1 -19 14 0 12 -9 22 -22 26 -24 7 -40 14 -142 60 -32 15 -67 24 -77
22 -11 -3 -19 0 -19 8 0 16 -119 78 -137 71 -8 -3 -11 -1 -8 4 11 17 -243 118
-264 105 -5 -2 -14 2 -20 9 -7 8 -30 17 -52 21 -21 4 -41 11 -44 15 -9 15
-165 71 -177 64 -7 -4 -8 -3 -4 4 8 13 -37 27 -54 17 -7 -4 -18 2 -26 14 -8
12 -20 21 -25 21 -6 0 -29 9 -51 20 -25 12 -51 17 -62 14 -12 -4 -17 -3 -13 2
4 4 -18 21 -49 36 -62 31 -68 33 -58 17 3 -6 -5 -3 -20 6 -15 10 -24 20 -22
23 3 3 -14 17 -37 31 -24 14 -52 32 -63 39 -41 27 -200 102 -216 102 -21 0
-33 22 -41 76 -7 42 -41 155 -54 179 -4 7 -8 -41 -9 -108 -1 -124 -17 -274
-35 -337 -6 -19 -30 -84 -54 -145 -25 -60 -56 -157 -70 -215 -32 -130 -69
-233 -130 -370 -50 -112 -68 -163 -110 -305 -84 -287 -188 -609 -328 -1015
-16 -47 -37 -116 -47 -155 -10 -38 -25 -95 -34 -125 -9 -30 -18 -66 -22 -80
-3 -14 -17 -61 -30 -105 -14 -44 -33 -109 -44 -145 -11 -36 -26 -87 -34 -115
-15 -52 -69 -259 -91 -355 -7 -30 -24 -95 -38 -145 -15 -49 -51 -189 -81 -310
-31 -121 -72 -278 -91 -350 -19 -71 -42 -157 -51 -190 -9 -33 -20 -67 -25 -75
-12 -22 -11 103 2 217 8 63 8 97 1 102 -9 5 -72 154 -72 169 0 15 28 -37 49
-90 13 -32 27 -56 31 -53 14 9 24 155 11 168 -6 6 -11 17 -11 25 0 8 -16 50
-35 95 -19 44 -33 82 -31 85 5 4 37 -64 69 -148 l21 -55 7 40 c42 231 62 527
60 893 -1 251 -5 319 -20 400 -16 81 -18 126 -14 271 6 179 -7 339 -33 414
-12 35 -11 41 17 100 42 88 208 310 409 547 8 10 35 27 59 39 l45 21 22 -21
c18 -17 26 -19 43 -10 42 23 22 148 -38 227 -29 39 -47 52 -89 66 -64 21 -106
12 -110 -23 -2 -13 -11 -32 -20 -42 -12 -14 -14 -22 -5 -36 10 -16 5 -21 -40
-41 -36 -15 -46 -24 -34 -27 9 -2 17 -9 17 -14 0 -16 -32 -23 -51 -11 -10 7
-41 12 -68 12 -27 0 -61 4 -75 10 -36 13 -209 31 -357 36 l-126 4 -52 -34
c-56 -38 -66 -38 -23 0 l27 24 -29 22 c-54 41 -80 149 -46 193 4 6 10 27 14
48 8 41 14 44 57 22 28 -15 30 -15 38 7 7 20 5 23 -17 26 -40 5 -142 -17 -187
-41 -111 -59 -277 -188 -262 -203 4 -4 21 6 38 22 26 24 30 25 20 7 -10 -19
-8 -26 9 -43 11 -11 26 -20 33 -20 7 0 18 -9 25 -20 7 -11 19 -20 27 -20 8 0
15 -9 15 -20 0 -13 7 -20 20 -20 25 0 82 -55 105 -101 10 -19 28 -48 41 -65
70 -94 159 -283 185 -392 24 -104 24 -130 -1 -167 -12 -19 -20 -49 -21 -80 -1
-30 -4 -39 -6 -22 -6 37 -18 27 -49 -40 -24 -53 -25 -60 -14 -127 14 -86 25
-124 57 -195 13 -29 22 -55 20 -57 -8 -8 -59 121 -80 202 -13 47 -26 81 -31
77 -13 -14 -36 -74 -36 -97 0 -27 33 -132 59 -189 11 -25 28 -64 38 -88 10
-24 50 -105 88 -179 74 -144 178 -370 173 -376 -4 -4 -229 453 -291 591 -25
55 -53 124 -63 153 -10 28 -21 52 -24 52 -7 0 -40 -90 -40 -108 0 -7 9 -32 19
-55 11 -23 30 -67 44 -97 13 -30 50 -108 81 -172 134 -280 169 -355 184 -393
8 -22 20 -46 25 -53 5 -7 7 -15 4 -18 -3 -3 -24 34 -47 83 -45 94 -56 117
-101 203 -16 30 -61 123 -100 205 -112 239 -121 255 -129 250 -4 -3 -13 -27
-20 -53 l-11 -49 110 -226 c61 -124 111 -228 111 -231 0 -3 20 -47 44 -98 74
-159 88 -190 83 -194 -5 -5 -63 111 -169 336 -32 69 -82 170 -110 225 -29 55
-56 110 -62 122 -6 13 -14 23 -17 23 -3 0 -11 -25 -18 -57 l-11 -56 79 -158
c43 -86 82 -167 86 -179 4 -12 40 -90 80 -173 70 -146 91 -197 82 -197 -4 0
-187 365 -187 373 0 3 -32 71 -71 153 -76 157 -83 163 -95 71 -6 -39 -1 -56
39 -138 73 -151 147 -309 147 -314 0 -2 29 -64 64 -137 73 -152 128 -279 123
-284 -2 -2 -32 56 -67 129 -35 72 -100 209 -145 302 -125 258 -165 344 -165
355 0 6 -4 10 -9 10 -9 0 -31 -83 -31 -116 0 -8 -4 -22 -9 -32 -5 -9 -15 -38
-22 -64 -6 -27 -15 -48 -19 -48 -9 0 -45 121 -74 255 -35 157 -104 471 -131
600 -49 233 -85 393 -104 465 -55 209 -104 486 -90 512 14 27 -13 23 -96 -12
-76 -33 -110 -37 -118 -16 -3 7 -2 62 3 122 5 60 11 165 14 234 3 69 11 202
17 296 9 127 9 231 1 412 -10 206 -10 252 3 310 26 116 66 266 96 354 34 101
20 106 -39 16z m3103 -758 c3 -6 -1 -7 -9 -4 -18 7 -21 14 -7 14 6 0 13 -4 16
-10z m40 -10 c-3 -5 -11 -10 -16 -10 -6 0 -7 5 -4 10 3 6 11 10 16 10 6 0 7
-4 4 -10z m65 -50 c0 -5 -4 -10 -9 -10 -6 0 -13 5 -16 10 -3 6 1 10 9 10 9 0
16 -4 16 -10z m-5196 -225 c-4 -8 -14 -15 -23 -15 -14 1 -13 3 3 15 25 19 27
19 20 0z m156 -167 c0 -16 -3 -19 -11 -11 -6 6 -8 16 -5 22 11 17 16 13 16
-11z m5997 -30 c-3 -8 -6 -5 -6 6 -1 11 2 17 5 13 3 -3 4 -12 1 -19z m96 2 c3
-11 1 -20 -4 -20 -5 0 -9 6 -9 14 0 8 -6 17 -12 19 -8 4 -7 6 3 6 9 1 19 -8
22 -19z m-3508 -250 c3 -6 -1 -7 -9 -4 -18 7 -21 14 -7 14 6 0 13 -4 16 -10z
m3680 -10 c-3 -5 -10 -10 -16 -10 -5 0 -9 5 -9 10 0 6 7 10 16 10 8 0 12 -4 9
-10z m55 -5 c0 -8 -2 -15 -4 -15 -2 0 -6 7 -10 15 -3 8 -1 15 4 15 6 0 10 -7
10 -15z m-6870 -45 c0 -5 -2 -10 -4 -10 -3 0 -8 5 -11 10 -3 6 -1 10 4 10 6 0
11 -4 11 -10z m7290 6 c0 -3 -4 -8 -10 -11 -5 -3 -10 -1 -10 4 0 6 5 11 10 11
6 0 10 -2 10 -4z m-7650 -26 c0 -5 -5 -10 -11 -10 -5 0 -7 5 -4 10 3 6 8 10
11 10 2 0 4 -4 4 -10z m3728 -25 c-14 -13 -39 -27 -55 -31 -24 -5 -22 -2 17
25 54 37 75 41 38 6z m3905 5 c-4 -16 0 -20 18 -20 19 0 21 -2 9 -10 -23 -15
-27 -13 -44 20 -13 28 -13 30 4 30 13 0 17 -5 13 -20z m-3738 -18 c-16 -10
-50 -26 -75 -37 -25 -10 -72 -36 -106 -57 -34 -21 -65 -38 -69 -38 -19 0 38
42 97 71 35 17 83 41 108 55 52 27 90 33 45 6z m-4305 -25 c0 -18 -2 -19 -10
-7 -13 20 -13 43 0 35 6 -3 10 -16 10 -28z m4485 9 c-22 -13 -53 -26 -70 -29
-19 -4 -8 4 30 23 73 35 95 39 40 6z m288 5 c-5 -18 -71 -42 -158 -56 -65 -10
-16 14 52 26 82 14 93 19 93 35 0 8 4 14 9 14 5 0 7 -8 4 -19z m3225 -19 c2
-7 -3 -12 -12 -12 -9 0 -16 7 -16 16 0 17 22 14 28 -4z m117 -12 c0 -7 -6 -15
-12 -17 -8 -3 -13 4 -13 17 0 13 5 20 13 18 6 -3 12 -11 12 -18z m-7195 -10
c0 -5 -4 -10 -10 -10 -5 0 -10 5 -10 10 0 6 5 10 10 10 6 0 10 -4 10 -10z
m3580 -54 c0 -2 -28 -13 -62 -25 -35 -12 -75 -28 -90 -36 -34 -19 -48 -19 -21
0 36 25 173 74 173 61z m2070 0 c0 -3 -4 -8 -10 -11 -5 -3 -10 -1 -10 4 0 6 5
11 10 11 6 0 10 -2 10 -4z m-2330 -16 c-8 -5 -22 -9 -30 -9 -10 0 -8 3 5 9 27
12 43 12 25 0z m593 3 c-7 -2 -19 -2 -25 0 -7 3 -2 5 12 5 14 0 19 -2 13 -5z
m-68 -13 c-88 -23 -177 -41 -181 -37 -8 8 138 45 176 45 l35 0 -30 -8z m-4615
-10 c0 -5 -2 -10 -4 -10 -3 0 -8 5 -11 10 -3 6 -1 10 4 10 6 0 11 -4 11 -10z
m8067 -16 c3 -8 1 -20 -6 -27 -8 -8 -11 -8 -11 0 0 6 -3 18 -6 27 -3 9 -1 16
5 16 7 0 14 -7 18 -16z m-4047 2 c0 -3 -4 -8 -10 -11 -5 -3 -10 -1 -10 4 0 6
5 11 10 11 6 0 10 -2 10 -4z m2424 -12 c9 -25 7 -76 -3 -69 -6 3 -9 13 -9 23
1 9 -2 27 -6 40 -8 25 8 31 18 6z m1121 6 c3 -5 -1 -10 -10 -10 -9 0 -13 5
-10 10 3 6 8 10 10 10 2 0 7 -4 10 -10z m305 0 c0 -5 -4 -10 -10 -10 -5 0 -10
5 -10 10 0 6 5 10 10 10 6 0 10 -4 10 -10z m-3460 -19 c-8 -5 -26 -11 -40 -15
-21 -5 -20 -3 5 9 32 15 60 20 35 6z m-440 -15 c0 -2 -7 -7 -16 -10 -8 -3 -12
-2 -9 4 6 10 25 14 25 6z m155 -6 c-3 -5 -11 -10 -16 -10 -6 0 -7 5 -4 10 3 6
11 10 16 10 6 0 7 -4 4 -10z m190 -20 c-16 -11 -34 -20 -39 -20 -5 0 -43 -16
-84 -35 -41 -20 -76 -34 -78 -32 -4 3 164 89 196 100 32 11 34 6 5 -13z m3679
5 c3 -8 1 -15 -4 -15 -6 0 -10 7 -10 15 0 8 2 15 4 15 2 0 6 -7 10 -15z m-717
-11 c-3 -3 -12 -4 -19 -1 -8 3 -5 6 6 6 11 1 17 -2 13 -5z m-3217 -8 c0 -3 -4
-8 -10 -11 -5 -3 -10 -1 -10 4 0 6 5 11 10 11 6 0 10 -2 10 -4z m440 -25 c-8
-5 -28 -11 -45 -14 l-30 -6 30 14 c34 16 72 21 45 6z m3610 -11 c0 -5 -4 -10
-10 -10 -5 0 -10 5 -10 10 0 6 5 10 10 10 6 0 10 -4 10 -10z m-3780 -55 c-52
-24 -101 -44 -107 -45 -7 0 -13 -4 -13 -10 0 -5 -5 -10 -11 -10 -6 0 -37 -16
-70 -35 -32 -19 -59 -31 -59 -27 1 19 295 170 335 171 11 0 -23 -19 -75 -44z
m-4483 3 c-3 -8 -6 -5 -6 6 -1 11 2 17 5 13 3 -3 4 -12 1 -19z m6850 0 c-3 -8
-6 -5 -6 6 -1 11 2 17 5 13 3 -3 4 -12 1 -19z m-767 2 c0 -5 -4 -10 -10 -10
-5 0 -10 5 -10 10 0 6 5 10 10 10 6 0 10 -4 10 -10z m590 -10 c13 -8 12 -10
-2 -10 -10 0 -21 0 -25 -1 -4 0 -9 4 -11 10 -5 14 18 14 38 1z m1690 6 c0 -3
-4 -8 -10 -11 -5 -3 -10 -1 -10 4 0 6 5 11 10 11 6 0 10 -2 10 -4z m-8583 -73
c-3 -10 -5 -4 -5 12 0 17 2 24 5 18 2 -7 2 -21 0 -30z m8443 33 c0 -3 -4 -8
-10 -11 -5 -3 -10 -1 -10 4 0 6 5 11 10 11 6 0 10 -2 10 -4z m-3640 -20 c0 -2
-51 -30 -112 -61 -62 -32 -141 -73 -175 -91 -35 -19 -63 -32 -63 -29 0 17 169
111 285 159 67 28 65 27 65 22z m2115 -16 c3 -5 1 -10 -4 -10 -6 0 -11 5 -11
10 0 6 2 10 4 10 3 0 8 -4 11 -10z m525 0 c0 -5 -4 -10 -9 -10 -6 0 -13 5 -16
10 -3 6 1 10 9 10 9 0 16 -4 16 -10z m1267 -32 c-3 -7 -5 -2 -5 12 0 14 2 19
5 13 2 -7 2 -19 0 -25z m-6737 2 c0 -5 -5 -10 -11 -10 -5 0 -7 5 -4 10 3 6 8
10 11 10 2 0 4 -4 4 -10z m5950 -40 c0 -5 -4 -10 -10 -10 -5 0 -10 5 -10 10 0
6 5 10 10 10 6 0 10 -4 10 -10z m-3225 -81 c-172 -103 -311 -170 -190 -91 72
47 214 122 229 122 6 -1 -11 -14 -39 -31z m2773 -44 c-3 -3 -9 2 -12 12 -6 14
-5 15 5 6 7 -7 10 -15 7 -18z m-5273 -52 c-21 -15 -30 -10 -22 11 4 10 13 13
23 9 15 -6 15 -7 -1 -20z m2464 -37 c-2 -2 -15 -7 -29 -10 l-25 -7 25 15 c21
12 42 14 29 2z m4134 -38 c3 -21 2 -38 -4 -38 -5 0 -9 19 -9 42 0 49 5 47 13
-4z m-4272 -65 c18 -38 35 -72 37 -77 3 -5 0 -6 -6 -2 -10 6 -82 129 -82 140
0 3 4 6 9 6 5 0 23 -30 42 -67z m89 37 c6 -11 7 -20 2 -20 -10 0 -32 21 -32
32 0 16 19 8 30 -12z m-4715 0 c3 -5 1 -10 -4 -10 -6 0 -11 5 -11 10 0 6 2 10
4 10 3 0 8 -4 11 -10z m4492 -12 c-3 -8 -6 -5 -6 6 -1 11 2 17 5 13 3 -3 4
-12 1 -19z m44 -84 c17 -32 51 -88 76 -123 24 -35 42 -65 40 -67 -2 -3 -12 8
-22 23 -10 15 -35 51 -56 78 -32 42 -79 133 -79 152 0 11 9 -3 41 -63z m2669
25 c0 -11 -4 -17 -10 -14 -5 3 -10 13 -10 21 0 8 5 14 10 14 6 0 10 -9 10 -21z
m740 -27 c0 -13 -12 -22 -22 -16 -10 6 -1 24 13 24 5 0 9 -4 9 -8z m-1050 -52
c0 -5 -4 -10 -9 -10 -6 0 -13 5 -16 10 -3 6 1 10 9 10 9 0 16 -4 16 -10z
m-2338 -175 c102 -160 132 -214 125 -221 -4 -5 -47 61 -47 72 0 5 -85 138
-130 204 -22 33 -65 118 -53 105 6 -5 53 -77 105 -160z m2928 145 c0 -11 -2
-20 -4 -20 -2 0 -6 9 -9 20 -3 11 -1 20 4 20 5 0 9 -9 9 -20z m-7519 -47 c-8
-15 -10 -15 -11 -2 0 17 10 32 18 25 2 -3 -1 -13 -7 -23z m6934 -103 c3 -6 -1
-7 -9 -4 -18 7 -21 14 -7 14 6 0 13 -4 16 -10z m512 -22 c-3 -8 -6 -5 -6 6 -1
11 2 17 5 13 3 -3 4 -12 1 -19z m-5047 2 c0 -5 -6 -10 -14 -10 -8 0 -18 5 -21
10 -3 6 3 10 14 10 12 0 21 -4 21 -10z m3997 4 c-3 -3 -12 -4 -19 -1 -8 3 -5
6 6 6 11 1 17 -2 13 -5z m-1867 -72 c18 -31 38 -64 45 -72 13 -15 79 -141 103
-195 22 -51 -5 -13 -51 70 -24 44 -67 120 -96 168 -28 48 -51 90 -51 93 0 15
22 -13 50 -64z m-740 32 c0 -8 -4 -12 -10 -9 -5 3 -10 10 -10 16 0 5 5 9 10 9
6 0 10 -7 10 -16z m2420 1 c0 -8 -4 -15 -10 -15 -5 0 -10 7 -10 15 0 8 5 15
10 15 6 0 10 -7 10 -15z m-3844 -23 c-18 -16 -18 -16 -6 6 6 13 14 21 18 18 3
-4 -2 -14 -12 -24z m421 -13 c-14 -8 -22 -8 -30 0 -8 8 -3 11 19 11 25 -1 27
-2 11 -11z m5193 1 c0 -5 -4 -10 -10 -10 -5 0 -10 5 -10 10 0 6 5 10 10 10 6
0 10 -4 10 -10z m-5663 -32 c-3 -8 -6 -5 -6 6 -1 11 2 17 5 13 3 -3 4 -12 1
-19z m4003 -8 c0 -5 -5 -10 -11 -10 -5 0 -7 5 -4 10 3 6 8 10 11 10 2 0 4 -4
4 -10z m-3965 -38 c-7 -8 -35 7 -35 18 0 6 7 6 20 -2 10 -7 17 -14 15 -16z
m2150 -74 c66 -116 201 -397 181 -377 -3 2 -41 74 -84 159 -44 85 -96 184
-116 220 -34 61 -41 80 -32 80 2 0 25 -37 51 -82z m2935 60 c0 -16 -3 -19 -11
-11 -6 6 -8 16 -5 22 11 17 16 13 16 -11z m-4610 -39 c0 -6 -4 -7 -10 -4 -5 3
-10 11 -10 16 0 6 5 7 10 4 6 -3 10 -11 10 -16z m4680 1 c0 -5 -4 -10 -10 -10
-5 0 -10 5 -10 10 0 6 5 10 10 10 6 0 10 -4 10 -10z m737 -12 c-3 -8 -6 -5 -6
6 -1 11 2 17 5 13 3 -3 4 -12 1 -19z m-5897 -18 c0 -5 -2 -10 -4 -10 -3 0 -8
5 -11 10 -3 6 -1 10 4 10 6 0 11 -4 11 -10z m4905 1 c3 -5 1 -12 -5 -16 -5 -3
-10 1 -10 9 0 18 6 21 15 7z m245 5 c0 -3 -4 -8 -10 -11 -5 -3 -10 -1 -10 4 0
6 5 11 10 11 6 0 10 -2 10 -4z m-850 -82 c0 -8 -5 -12 -10 -9 -6 4 -8 11 -5
16 9 14 15 11 15 -7z m-3588 -54 c-25 -24 -32 -25 -32 -6 0 13 15 21 44 25 6
0 0 -8 -12 -19z m2658 -6 c0 -8 -4 -12 -10 -9 -5 3 -10 13 -10 21 0 8 5 12 10
9 6 -3 10 -13 10 -21z m1360 -4 c0 -5 -7 -10 -15 -10 -8 0 -15 5 -15 10 0 6 7
10 15 10 8 0 15 -4 15 -10z m330 0 c0 -5 -4 -10 -10 -10 -5 0 -10 5 -10 10 0
6 5 10 10 10 6 0 10 -4 10 -10z m-5733 -42 c-3 -7 -5 -2 -5 12 0 14 2 19 5 13
2 -7 2 -19 0 -25z m3043 -12 c0 -12 -5 -7 -19 24 -11 24 -11 24 3 6 9 -11 16
-24 16 -30z m2630 4 c0 -5 -4 -10 -10 -10 -5 0 -10 5 -10 10 0 6 5 10 10 10 6
0 10 -4 10 -10z m-4070 -10 c0 -5 -2 -10 -4 -10 -3 0 -8 5 -11 10 -3 6 -1 10
4 10 6 0 11 -4 11 -10z m3000 -8 c0 -13 -12 -22 -22 -16 -10 6 -1 24 13 24 5
0 9 -4 9 -8z m490 -12 c0 -5 -7 -10 -15 -10 -8 0 -15 5 -15 10 0 6 7 10 15 10
8 0 15 -4 15 -10z m580 -20 c0 -5 -4 -10 -10 -10 -5 0 -10 5 -10 10 0 6 5 10
10 10 6 0 10 -4 10 -10z m1768 -2 c-6 -18 -28 -21 -28 -4 0 9 7 16 16 16 9 0
14 -5 12 -12z m-908 -7 c0 -6 -4 -13 -10 -16 -5 -3 -10 1 -10 9 0 9 5 16 10
16 6 0 10 -4 10 -9z m450 -51 c0 -5 -5 -10 -11 -10 -5 0 -7 5 -4 10 3 6 8 10
11 10 2 0 4 -4 4 -10z m-6056 -25 c3 -9 0 -15 -9 -15 -16 0 -27 14 -18 24 10
10 21 7 27 -9z m4563 -85 c3 -11 12 -20 19 -20 8 0 14 -4 14 -10 0 -5 -4 -10
-8 -10 -14 0 -52 36 -52 49 0 19 22 12 27 -9z m-2450 -32 c-3 -8 -6 -5 -6 6
-1 11 2 17 5 13 3 -3 4 -12 1 -19z m958 3 c7 -12 -12 -24 -25 -16 -11 7 -4 25
10 25 5 0 11 -4 15 -9z m-3245 -21 c0 -5 -7 -10 -16 -10 -8 0 -12 5 -9 10 3 6
10 10 16 10 5 0 9 -4 9 -10z m6649 -16 c-14 -18 -24 -11 -15 11 3 9 11 13 16
10 8 -5 7 -11 -1 -21z m-4820 -374 c67 -146 136 -293 153 -328 16 -35 28 -66
25 -69 -6 -5 -138 262 -184 372 -14 33 -49 110 -78 170 -62 127 -85 183 -85
199 1 17 36 -54 169 -344z m488 328 c-3 -8 -6 -5 -6 6 -1 11 2 17 5 13 3 -3 4
-12 1 -19z m1393 18 c0 -11 -19 -15 -25 -6 -3 5 1 10 9 10 9 0 16 -2 16 -4z
m925 -26 c-3 -5 -10 -10 -16 -10 -5 0 -9 5 -9 10 0 6 7 10 16 10 8 0 12 -4 9
-10z m-820 -30 c3 -5 -1 -10 -9 -10 -9 0 -16 5 -16 10 0 6 4 10 9 10 6 0 13
-4 16 -10z m2875 0 c0 -5 -4 -10 -10 -10 -5 0 -10 5 -10 10 0 6 5 10 10 10 6
0 10 -4 10 -10z m-5965 -19 c-8 -13 -35 -15 -35 -2 0 5 8 11 18 13 21 5 26 2
17 -11z m1525 -16 c0 -5 -5 -3 -10 5 -5 8 -10 20 -10 25 0 6 5 3 10 -5 5 -8
10 -19 10 -25z m1410 15 c0 -5 -4 -10 -10 -10 -5 0 -10 5 -10 10 0 6 5 10 10
10 6 0 10 -4 10 -10z m1106 -17 c-10 -10 -19 5 -10 18 6 11 8 11 12 0 2 -7 1
-15 -2 -18z m-1016 -13 c0 -5 -4 -10 -10 -10 -5 0 -10 5 -10 10 0 6 5 10 10
10 6 0 10 -4 10 -10z m456 -17 c-10 -10 -19 5 -10 18 6 11 8 11 12 0 2 -7 1
-15 -2 -18z m-526 -2 c0 -23 -16 -36 -25 -21 -9 14 1 40 15 40 5 0 10 -9 10
-19z m-1391 -56 c0 -5 -6 1 -14 15 -8 14 -14 30 -14 35 0 6 6 -1 14 -15 8 -14
14 -29 14 -35z m-112 3 c-3 -8 -6 -5 -6 6 -1 11 2 17 5 13 3 -3 4 -12 1 -19z
m1078 -48 c4 -6 -6 -10 -22 -10 -22 0 -25 2 -13 10 19 12 27 12 35 0z m-1465
-247 c22 -51 40 -95 40 -97 0 -2 38 -90 85 -196 87 -197 109 -262 41 -123 -38
78 -156 348 -156 357 0 3 -29 71 -65 151 -36 81 -65 150 -64 153 1 11 76 -144
119 -245z m530 212 c0 -5 -5 -3 -10 5 -5 8 -10 20 -10 25 0 6 5 3 10 -5 5 -8
10 -19 10 -25z m1280 26 c0 -12 -28 -22 -34 -12 -3 5 -3 11 1 15 9 9 33 7 33
-3z m1340 -12 c0 -6 -4 -7 -10 -4 -5 3 -10 11 -10 16 0 6 5 7 10 4 6 -3 10
-11 10 -16z m-2717 -29 c3 -11 1 -18 -4 -14 -5 3 -9 12 -9 20 0 20 7 17 13 -6z
m-74 -80 c0 -17 -23 33 -33 71 -3 13 3 6 14 -16 11 -22 19 -47 19 -55z m1726
62 c-3 -3 -11 0 -18 7 -9 10 -8 11 6 5 10 -3 15 -9 12 -12z m1055 -2 c0 -5 -2
-10 -4 -10 -3 0 -8 5 -11 10 -3 6 -1 10 4 10 6 0 11 -4 11 -10z m71 -8 c-7 -2
-18 1 -23 6 -8 8 -4 9 13 5 13 -4 18 -8 10 -11z m-401 -13 c0 -5 -7 -9 -15 -9
-9 0 -12 6 -9 15 6 15 24 11 24 -6z m-3620 -79 c0 -5 -4 -10 -10 -10 -5 0 -10
5 -10 10 0 6 5 10 10 10 6 0 10 -4 10 -10z m1100 -21 c0 -6 -4 -7 -10 -4 -5 3
-10 11 -10 16 0 6 5 7 10 4 6 -3 10 -11 10 -16z m1218 3 c2 -7 -6 -12 -17 -12
-21 0 -27 11 -14 24 9 9 26 2 31 -12z m804 -14 c-9 -9 -15 -9 -24 0 -9 9 -7
12 12 12 19 0 21 -3 12 -12z m605 -35 c-11 -10 -26 8 -20 23 5 15 7 14 15 -1
6 -9 7 -19 5 -22z m-3030 5 c-3 -8 -6 -5 -6 6 -1 11 2 17 5 13 3 -3 4 -12 1
-19z m-1737 -22 c0 -3 -4 -8 -10 -11 -5 -3 -10 -1 -10 4 0 6 5 11 10 11 6 0
10 -2 10 -4z m1765 -26 c9 -16 12 -30 7 -30 -4 0 -13 14 -19 30 -6 17 -10 30
-7 30 2 0 10 -13 19 -30z m2812 24 c-3 -3 -12 -4 -19 -1 -8 3 -5 6 6 6 11 1
17 -2 13 -5z m-4942 -14 c3 -5 1 -10 -4 -10 -6 0 -11 5 -11 10 0 6 2 10 4 10
3 0 8 -4 11 -10z m2748 -20 c3 -11 1 -18 -4 -14 -5 3 -9 12 -9 20 0 20 7 17
13 -6z m-579 -72 c8 -18 33 -80 56 -138 23 -58 55 -138 72 -178 17 -40 29 -75
26 -78 -9 -8 -66 121 -108 242 -21 61 -45 125 -54 142 -17 32 -19 42 -11 42 2
0 11 -15 19 -32z m1870 -4 c3 -8 2 -12 -4 -9 -6 3 -10 10 -10 16 0 14 7 11 14
-7z m-1354 -29 c0 -5 -5 -3 -10 5 -5 8 -10 20 -10 25 0 6 5 3 10 -5 5 -8 10
-19 10 -25z m-2270 -25 c0 -5 -2 -10 -4 -10 -3 0 -8 5 -11 10 -3 6 -1 10 4 10
6 0 11 -4 11 -10z m3467 4 c-3 -3 -12 -4 -19 -1 -8 3 -5 6 6 6 11 1 17 -2 13
-5z m-3090 -36 c-3 -7 -5 -2 -5 12 0 14 2 19 5 13 2 -7 2 -19 0 -25z m1923
-23 c0 -5 -5 -3 -10 5 -5 8 -10 20 -10 25 0 6 5 3 10 -5 5 -8 10 -19 10 -25z
m679 21 c10 -12 8 -13 -8 -9 -12 3 -18 9 -15 14 7 12 10 11 23 -5z m-2934 -66
c3 -5 1 -10 -4 -10 -6 0 -11 5 -11 10 0 6 2 10 4 10 3 0 8 -4 11 -10z m2014
-85 c0 -5 -8 6 -19 25 -11 19 -19 40 -19 45 0 6 8 -6 19 -25 11 -19 19 -39 19
-45z m1696 65 c3 -5 1 -10 -4 -10 -6 0 -11 5 -11 10 0 6 2 10 4 10 3 0 8 -4
11 -10z m-5485 -15 c0 -8 -7 -15 -15 -15 -16 0 -20 12 -8 23 11 12 23 8 23 -8z
m60 -15 c0 -5 -2 -10 -4 -10 -3 0 -8 5 -11 10 -3 6 -1 10 4 10 6 0 11 -4 11
-10z m2610 -20 c0 -5 -2 -10 -4 -10 -3 0 -8 5 -11 10 -3 6 -1 10 4 10 6 0 11
-4 11 -10z m5794 -41 c-5 -8 -51 -9 -67 -2 -18 10 5 19 37 15 20 -2 33 -8 30
-13z m-3319 -39 c-3 -5 -10 -10 -16 -10 -5 0 -9 5 -9 10 0 6 7 10 16 10 8 0
12 -4 9 -10z m-670 -30 c-3 -5 -10 -10 -16 -10 -5 0 -9 5 -9 10 0 6 7 10 16
10 8 0 12 -4 9 -10z m-445 -35 c0 -5 -5 -3 -10 5 -5 8 -10 20 -10 25 0 6 5 3
10 -5 5 -8 10 -19 10 -25z m770 25 c0 -5 -4 -10 -10 -10 -5 0 -10 5 -10 10 0
6 5 10 10 10 6 0 10 -4 10 -10z m432 -12 c-7 -7 -12 -8 -12 -2 0 14 12 26 19
19 2 -3 -1 -11 -7 -17z m268 -50 c0 -5 -7 -3 -15 6 -8 8 -15 18 -15 22 0 3 7
1 15 -6 8 -7 15 -17 15 -22z m-1710 -82 c-1 -15 -36 53 -44 84 -4 14 5 3 19
-24 14 -28 25 -55 25 -60z m-1380 54 c0 -5 -2 -10 -4 -10 -3 0 -8 5 -11 10 -3
6 -1 10 4 10 6 0 11 -4 11 -10z m1258 -25 c-3 -3 -9 2 -12 12 -6 14 -5 15 5 6
7 -7 10 -15 7 -18z m45 -95 c3 -11 2 -18 -3 -15 -4 3 -10 14 -13 25 -3 11 -2
18 3 15 4 -3 10 -14 13 -25z m1162 20 c3 -5 2 -10 -4 -10 -5 0 -13 5 -16 10
-3 6 -2 10 4 10 5 0 13 -4 16 -10z m140 0 c-3 -5 -11 -10 -16 -10 -6 0 -7 5
-4 10 3 6 11 10 16 10 6 0 7 -4 4 -10z m1290 0 c3 -5 1 -10 -4 -10 -6 0 -11 5
-11 10 0 6 2 10 4 10 3 0 8 -4 11 -10z m192 -6 c-3 -3 -12 -4 -19 -1 -8 3 -5
6 6 6 11 1 17 -2 13 -5z m-6387 -34 c0 -5 -4 -10 -10 -10 -5 0 -10 5 -10 10 0
6 5 10 10 10 6 0 10 -4 10 -10z m2215 0 c3 -5 1 -10 -4 -10 -6 0 -11 5 -11 10
0 6 2 10 4 10 3 0 8 -4 11 -10z m3830 -20 c3 -5 1 -10 -4 -10 -6 0 -11 5 -11
10 0 6 2 10 4 10 3 0 8 -4 11 -10z m-2300 -41 c9 -17 15 -33 13 -35 -3 -2 -12
12 -21 31 -21 43 -13 47 8 4z m-207 -14 c-3 -3 -9 2 -12 12 -6 14 -5 15 5 6 7
-7 10 -15 7 -18z m110 -20 c-3 -3 -9 2 -12 12 -6 14 -5 15 5 6 7 -7 10 -15 7
-18z m1222 15 c0 -5 -5 -10 -11 -10 -5 0 -7 5 -4 10 3 6 8 10 11 10 2 0 4 -4
4 -10z m1025 -8 c-3 -3 -11 0 -18 7 -9 10 -8 11 6 5 10 -3 15 -9 12 -12z m135
-25 c0 -6 -9 -2 -20 8 -11 10 -17 22 -13 28 6 10 33 -19 33 -36z m-2071 -15
c5 -18 7 -32 5 -32 -5 0 -34 65 -34 77 0 16 21 -16 29 -45z m881 -26 c0 -3 -4
-8 -10 -11 -5 -3 -10 -1 -10 4 0 6 5 11 10 11 6 0 10 -2 10 -4z m-1242 -71
c-3 -3 -9 2 -12 12 -6 14 -5 15 5 6 7 -7 10 -15 7 -18z m122 -30 c0 -5 -5 -3
-10 5 -5 8 -10 20 -10 25 0 6 5 3 10 -5 5 -8 10 -19 10 -25z m745 5 c3 -5 1
-10 -4 -10 -6 0 -11 5 -11 10 0 6 2 10 4 10 3 0 8 -4 11 -10z m-832 -50 c3
-11 2 -20 -3 -20 -4 0 -10 11 -12 25 -6 29 7 25 15 -5z m937 -6 c0 -8 -4 -12
-10 -9 -5 3 -10 10 -10 16 0 5 5 9 10 9 6 0 10 -7 10 -16z m37 -20 c-3 -3 -12
-4 -19 -1 -8 3 -5 6 6 6 11 1 17 -2 13 -5z m-947 -44 c0 -13 -1 -13 -10 0 -5
8 -10 22 -10 30 0 13 1 13 10 0 5 -8 10 -22 10 -30z m4827 -122 c-3 -8 -6 -5
-6 6 -1 11 2 17 5 13 3 -3 4 -12 1 -19z m-3977 -8 c0 -5 -7 -7 -15 -4 -8 4
-15 8 -15 10 0 2 7 4 15 4 8 0 15 -4 15 -10z m4000 -40 c0 -5 -4 -10 -10 -10
-5 0 -10 5 -10 10 0 6 5 10 10 10 6 0 10 -4 10 -10z m-2537 -77 c-7 -2 -19 -2
-25 0 -7 3 -2 5 12 5 14 0 19 -2 13 -5z"/>
<path d="M4540 5269 c-1 -53 148 -261 440 -614 50 -60 110 -135 134 -165 23
-30 79 -102 125 -160 45 -58 103 -136 129 -174 26 -39 62 -85 80 -104 17 -19
32 -38 32 -42 0 -9 179 -100 195 -100 7 0 7 3 0 8 -18 13 -44 72 -39 86 4 9
-5 20 -23 29 -15 8 -39 33 -51 56 -13 23 -28 41 -33 41 -6 0 -33 23 -60 50
-27 28 -54 50 -59 50 -6 0 -10 7 -10 15 0 8 -9 20 -20 27 -11 7 -20 18 -20 24
0 14 -68 84 -82 84 -5 0 -7 4 -4 8 3 4 -24 34 -59 66 -39 35 -69 71 -75 92 -7
19 -18 34 -27 34 -8 0 -17 8 -20 18 -2 10 -17 23 -33 30 -17 8 -27 19 -24 27
3 7 -1 12 -9 12 -8 -1 -36 24 -62 57 -38 46 -45 60 -34 67 12 8 12 10 -1 8
-33 -3 -50 2 -50 14 0 8 -9 22 -20 32 -11 10 -20 23 -20 29 0 6 4 6 11 -1 16
-16 38 -5 32 17 -4 15 -9 17 -29 10 -21 -8 -26 -6 -35 17 -5 14 -12 23 -15 20
-8 -7 -33 16 -28 24 2 4 -28 40 -66 80 -38 41 -70 77 -70 81 0 8 -62 110 -71
118 -3 3 -11 14 -17 25 -9 16 -11 16 -12 4z m1097 -1315 c-3 -3 -12 -4 -19 -1
-8 3 -5 6 6 6 11 1 17 -2 13 -5z"/>
<path d="M5010 4785 c0 -8 4 -15 10 -15 5 0 7 7 4 15 -4 8 -8 15 -10 15 -2 0
-4 -7 -4 -15z"/>
<path d="M5111 4604 c0 -11 3 -14 6 -6 3 7 2 16 -1 19 -3 4 -6 -2 -5 -13z"/>
<path d="M5605 4420 c3 -5 10 -10 16 -10 5 0 9 5 9 10 0 6 -7 10 -16 10 -8 0
-12 -4 -9 -10z"/>
<path d="M5858 4378 c-8 -13 -18 -31 -21 -42 -6 -14 -15 -17 -41 -14 -30 3
-32 2 -22 -14 16 -27 29 -28 76 -7 23 10 48 19 55 19 7 0 16 6 18 13 4 10 6
10 6 0 1 -7 6 -13 12 -13 13 0 8 50 -6 51 -5 0 -14 7 -18 15 -12 21 -43 17
-59 -8z"/>
<path d="M2220 4220 c-13 -8 -12 -10 3 -10 9 0 17 5 17 10 0 12 -1 12 -20 0z"/>
<path d="M1648 4003 c7 -3 16 -2 19 1 4 3 -2 6 -13 5 -11 0 -14 -3 -6 -6z"/>
<path d="M5695 3910 c3 -5 8 -10 11 -10 2 0 4 5 4 10 0 6 -5 10 -11 10 -5 0
-7 -4 -4 -10z"/>
<path d="M1415 3860 c-3 -5 -1 -10 4 -10 6 0 11 5 11 10 0 6 -2 10 -4 10 -3 0
-8 -4 -11 -10z"/>
<path d="M5803 3833 c9 -9 19 -14 23 -11 10 10 -6 28 -24 28 -15 0 -15 -1 1
-17z"/>
<path d="M4774 3747 c-15 -16 -50 -45 -96 -81 -43 -32 -48 -46 -17 -46 11 0
17 5 14 10 -9 14 8 13 23 -2 8 -8 16 -5 31 13 11 13 19 29 16 36 -5 15 42 66
55 58 6 -3 7 1 4 9 -7 19 -15 20 -30 3z"/>
<path d="M4755 3690 c-3 -5 1 -10 10 -10 9 0 13 5 10 10 -3 6 -8 10 -10 10 -2
0 -7 -4 -10 -10z"/>
<path d="M1037 3459 c-4 -16 -3 -18 9 -8 7 6 11 15 8 20 -8 13 -11 11 -17 -12z"/>
<path d="M6322 3405 c0 -16 2 -22 5 -12 2 9 2 23 0 30 -3 6 -5 -1 -5 -18z"/>
<path d="M1022 3400 c0 -14 2 -19 5 -12 2 6 2 18 0 25 -3 6 -5 1 -5 -13z"/>
<path d="M871 2814 c0 -11 3 -14 6 -6 3 7 2 16 -1 19 -3 4 -6 -2 -5 -13z"/>
<path d="M9960 2211 c0 -6 5 -13 10 -16 6 -3 10 1 10 9 0 9 -4 16 -10 16 -5 0
-10 -4 -10 -9z"/>
</g>
</svg>
